<?xml version="1.0" encoding="UTF-8" standalone="no"?>
<svg
   width="16"
   height="16"
   viewBox="0 0 16 16"
   fill="currentColor"
   version="1.1"
   id="svg1"
   sodipodi:docname="packageipm_base.svg"
   xml:space="preserve"
   inkscape:version="1.3 (0e150ed6c4, 2023-07-21)"
   inkscape:export-filename="packageipm.svg"
   inkscape:export-xdpi="96"
   inkscape:export-ydpi="96"
   xmlns:inkscape="http://www.inkscape.org/namespaces/inkscape"
   xmlns:sodipodi="http://sodipodi.sourceforge.net/DTD/sodipodi-0.dtd"
   xmlns="http://www.w3.org/2000/svg"
   xmlns:svg="http://www.w3.org/2000/svg"><defs
     id="defs1"><clipPath
       clipPathUnits="userSpaceOnUse"
       id="clipPath44"><path
         id="path45"
         style="fill:#ff0000;fill-opacity:1;fill-rule:nonzero;stroke:none"
         d="M 1.7246094,1.7109375 V 11.720703 H 13.505859 v -1.708984 c -0.0021,0.001 -0.0038,0.003 -0.0059,0.0039 -0.02189,0.03539 -0.04806,0.06779 -0.07227,0.101563 -0.0062,-0.01361 -0.01201,-0.0289 -0.01758,-0.04297 0.0047,0.02298 0.0092,0.05048 0.01367,0.06836 0.0055,0.02211 -0.03125,0.03238 -0.04883,0.04687 -0.03957,0.0326 -0.06834,0.04316 -0.115234,0.06836 -0.02388,0.01016 -0.0476,0.02315 -0.07227,0.03125 -0.08691,0.02843 -0.181844,0.04757 -0.271484,0.06445 -0.102954,0.01939 -0.197209,0.03281 -0.300782,0.04883 -0.04819,0.0075 -0.09635,0.01594 -0.144531,0.02344 -0.108506,0.01776 -0.216415,0.0348 -0.324219,0.05664 -0.02279,0.0071 -0.04564,0.01416 -0.06836,0.02148 -0.0065,0.002 -0.013,0.0039 -0.01953,0.0059 -0.0015,0.03472 -0.008,0.07007 -0.01953,0.113281 -0.0035,0.013 -0.01138,0.02321 -0.01758,0.03516 -0.006,0.0094 -0.01323,0.0201 -0.01953,0.0293 -0.0347,0.05053 -0.0767,0.09489 -0.123047,0.134766 -0.01129,0.0091 -0.02168,0.01844 -0.0332,0.02734 -0.05965,0.04587 -0.126752,0.08437 -0.195312,0.115235 -0.03651,0.0156 -0.05496,0.02479 -0.09375,0.03711 -0.07125,0.02261 -0.146019,0.03325 -0.220703,0.03125 -0.04097,-0.0033 -0.08261,-0.008 -0.123047,-0.01563 -0.0031,-5.91e-4 -0.01441,-0.0033 -0.02539,-0.0059 -0.01579,0.0036 -0.03097,0.0067 -0.04687,0.0098 -0.08371,0.01587 -0.167763,0.02803 -0.251953,0.04102 -0.0701,0.01083 -0.141238,0.01997 -0.210938,0.0332 -0.04937,0.0091 -0.09826,0.02113 -0.146484,0.03516 -0.03851,0.01264 -0.07519,0.02857 -0.111328,0.04687 -0.04197,0.02077 -0.08371,0.0425 -0.126953,0.06055 -0.03173,0.01246 -0.06331,0.02452 -0.0957,0.03516 -0.04073,0.01245 -0.08234,0.02094 -0.125,0.02344 -0.05068,0.0032 -0.1019077,0.0025 -0.1523441,-0.0039 -0.023764,-0.0035 -0.082218,-0.01036 -0.097656,-0.02344 -0.053394,-0.04523 -0.089808,-0.07531 -0.1132812,-0.107422 v 0.01953 c 8.3e-4,0.01754 0.003,0.0352 0.00391,0.05273 1.221e-4,0.0029 -1.221e-4,0.0069 0,0.0098 0.00297,0.06942 -0.067372,0.07106 -0.070312,0.002 -1.121e-4,-0.0026 1.121e-4,-0.0052 0,-0.0078 -9.6e-4,-0.01874 -0.00127,-0.03789 -0.00195,-0.05664 v -0.06055 -0.07813 -0.07227 -0.06641 -0.06641 -0.07031 -0.06055 -0.05664 -0.05664 -0.04492 -0.04102 -0.04297 c 2e-6,-0.01661 -1.06e-5,-0.03417 0,-0.05078 1.16e-5,-0.01559 -7.32e-5,-0.0313 0,-0.04687 6.68e-5,-0.01169 -4.333e-4,-0.02348 0,-0.03516 4.9e-4,-0.01197 4.617e-4,-0.02327 0.00195,-0.03516 0.00141,-0.01069 0.00464,-0.02053 0.00586,-0.03125 0.00152,-0.009 0.00233,-0.01834 0.00391,-0.02734 0.00161,-0.0096 0.0032,-0.0196 0.00391,-0.0293 0.00177,-0.01278 0.00504,-0.02507 0.00977,-0.03711 0.00384,-0.0094 0.00669,-0.0196 0.00977,-0.0293 0.00285,-0.0095 0.00231,-0.01734 0.00195,-0.02734 v -0.03906 c 0,-0.03039 0.014173,-0.04881 0.029297,-0.05273 0.00216,-5.61e-4 0.00367,0 0.00586,0 0.017544,-1e-6 0.035156,0.018 0.035156,0.05273 v 0.02344 c 0.012111,-0.01481 0.01665,-0.02293 0.03125,-0.03906 0.00882,-0.0091 0.01967,-0.01719 0.029297,-0.02539 0.00257,-0.0026 0.00512,-0.0053 0.00781,-0.0078 0.00393,-0.0037 0.00753,-0.0083 0.011719,-0.01172 0.01161,-0.0095 0.024779,-0.016871 0.037109,-0.025391 0.066001,-0.023914 0.097458,-0.03535 0.1171875,-0.03125 0.044959,-0.052651 0.1005488,-0.090599 0.1796868,-0.095703 0.03415,-0.0022 0.06826,0.00972 0.101563,0.019531 0.02136,-0.00599 0.04255,-0.012557 0.06445,-0.017578 0.0444,-0.011078 0.08803,-0.02182 0.132813,-0.03125 0.04056,-0.0087 0.08212,-0.018561 0.123046,-0.025391 0.0401,-0.00622 0.07893,-0.012108 0.119141,-0.017578 0.03039,-0.0046 0.06159,-0.00999 0.0918,-0.015625 0.03437,-0.00675 0.0687,-0.013698 0.103516,-0.017578 0.0326,-0.0031 0.06488,-0.00427 0.09766,-0.00391 0.02091,-2.194e-4 0.04161,-8.755e-4 0.0625,-0.00195 0.0078,-4.383e-4 0.01483,2.558e-4 0.01953,0 0.01705,-0.0047 0.03435,-0.00894 0.05078,-0.015625 0.02785,-0.010151 0.05551,-0.020987 0.08399,-0.029297 0.03661,-0.010178 0.0731,-0.018281 0.111328,-0.019531 0.01175,1.202e-4 0.02342,-3.578e-4 0.03516,0 0.0045,1.365e-4 0.0091,0.00154 0.01367,0.00195 0.02182,-0.028742 0.06053,-0.043027 0.0918,-0.0625 0.01569,-0.00977 0.03335,-0.017039 0.05078,-0.023437 -0.02775,-0.072079 -0.01695,-0.083788 0.05078,-0.09375 v -0.00195 c 8.5e-4,-0.020868 0.042,-0.00773 0.0625,-0.011719 0.08535,-0.016628 0.0974,-0.019194 0.185547,-0.037109 0.171038,-0.035286 0.341556,-0.071814 0.513672,-0.1015625 0.0026,-3.729e-4 0.0052,-0.00157 0.0078,-0.00195 0.0078,-0.035972 0.01788,-0.072044 0.03125,-0.1054688 -0.0042,-0.07939 0.0036,-0.1614414 0.02539,-0.2382812 -0.0074,-9.197e-4 -0.01241,-7.098e-4 -0.02148,-0.00195 -0.01543,-0.00211 -0.02972,-0.00443 -0.04492,-0.00781 -0.01759,-0.00391 -0.05124,0.00232 -0.05273,-0.015625 -0.03754,-0.4355137 -0.109344,-0.4266056 0.06055,-0.4550781 -0.01145,-0.029009 -0.01717,-0.060189 -0.01367,-0.091797 0.0016,-0.014782 0.0052,-0.027201 0.0098,-0.039063 -0.01237,-0.00371 -0.02517,-0.00668 -0.03711,-0.011719 -0.0082,-0.00345 -0.01739,-0.00793 -0.02539,-0.011719 -0.0088,-0.00514 -0.01699,-0.010005 -0.02539,-0.015625 -0.05908,-0.039349 -0.103252,-0.098332 -0.113282,-0.171875 -0.0058,-0.042352 3.42e-4,-0.088291 0.01367,-0.1289062 0.01053,-0.032114 0.03625,-0.055659 0.05469,-0.083984 0.04799,-0.048942 0.109888,-0.07508 0.173828,-0.095703 0.0065,-0.00222 0.01292,-0.00405 0.01953,-0.00586 -0.06009,-0.00355 -0.06517,-0.061079 -0.0098,-0.068359 0.0038,-4.992e-4 0.0093,-1.66e-5 0.01367,0 0.06364,2.5e-4 0.125863,0.00352 0.189453,0.00586 0.09515,0.00354 0.1919,0.00473 0.28711,0.00586 0.107871,0.00125 0.214394,7.786e-4 0.322265,0.00195 0.06514,2.8e-4 0.130233,0.00335 0.195313,0.00586 0.0387,0.00175 0.07835,8.642e-4 0.117187,0.00195 V 1.7109375 Z" /></clipPath></defs><sodipodi:namedview
     id="namedview1"
     pagecolor="#ffffff"
     bordercolor="#000000"
     borderopacity="0.25"
     inkscape:showpageshadow="2"
     inkscape:pageopacity="0.0"
     inkscape:pagecheckerboard="0"
     inkscape:deskcolor="#d1d1d1"
     inkscape:zoom="22.627417"
     inkscape:cx="-2.5632621"
     inkscape:cy="11.998718"
     inkscape:window-width="2400"
     inkscape:window-height="1261"
     inkscape:window-x="-9"
     inkscape:window-y="1341"
     inkscape:window-maximized="1"
     inkscape:current-layer="svg1" /><path
     fill-rule="evenodd"
     clip-rule="evenodd"
     d="m 7.7149978,1.7107473 5.2024792,1.403813 0.589131,0.4312367 V 9.7299145 L 13.171257,10.170325 7.6152988,11.720942 2.0502765,10.170325 1.7239886,9.7299145 V 3.545797 L 2.2768653,3.1145603 7.4702819,1.7107473 Z M 7.6334259,2.6282721 4.0080048,3.545797 4.5065002,3.7293019 7.6152988,4.5550743 10.334365,3.8118792 11.195402,3.545797 Z M 2.6303438,9.381255 7.1621211,10.638263 V 5.3808467 L 2.6303438,4.1513634 Z M 8.0684764,5.3808467 V 10.638263 L 12.600253,9.381255 V 4.1238376 L 10.769415,4.6312289 V 6.9865152 L 9.8630598,7.2250714 V 4.8826307 Z"
     id="path1"
     inkscape:label="path1"
     style="stroke-width:0.911923"
     clip-path="url(#clipPath44)" /><g
     inkscape:groupmode="layer"
     id="layer4"
     inkscape:label="OS 1"
     transform="translate(1.4026352,0.44990186)"
     style="display:inline"><path
       style="fill:#000000;fill-opacity:1;stroke:#000000;stroke-width:1.1;stroke-dasharray:none"
       d="m 9.2362205,8.733389 v 5.345892"
       id="path5" /><path
       style="fill:#000000;fill-opacity:1;stroke:#000000;stroke-width:1.1;stroke-dasharray:none"
       d="M 11.661522,8.6880852 V 14.033977"
       id="path5-4" /><path
       style="fill:#000000;fill-opacity:1;stroke:#000000;stroke-width:1.1;stroke-dasharray:none"
       d="m 8.926394,13.590485 1.852537,0.899804"
       id="path6" /><path
       style="fill:#000000;fill-opacity:1;stroke:#000000;stroke-width:1.1;stroke-dasharray:none"
       d="m 10.131848,8.2887741 1.852537,0.899804"
       id="path6-8" /></g></svg>
